<svg width="134" height="142" viewBox="0 0 134 142" fill="none" xmlns="http://www.w3.org/2000/svg">
<mask id="path-1-inside-1_321_10312" fill="white">
<path fill-rule="evenodd" clip-rule="evenodd" d="M19 23C19 10.2975 29.2975 0 42 0H92C104.703 0 115 10.2975 115 23C115 35.7025 104.703 46 92 46H74.5V48H111C123.703 48 134 58.2975 134 71C134 83.7025 123.703 94 111 94H75V96H100C112.703 96 123 106.297 123 119C123 131.703 112.703 142 100 142H34C21.2975 142 11 131.703 11 119C11 106.297 21.2975 96 34 96H60V94H23C10.2974 94 0 83.7025 0 71C0 58.2975 10.2975 48 23 48H59.5V46H42C29.2974 46 19 35.7025 19 23Z"/>
</mask>
<path fill-rule="evenodd" clip-rule="evenodd" d="M19 23C19 10.2975 29.2975 0 42 0H92C104.703 0 115 10.2975 115 23C115 35.7025 104.703 46 92 46H74.5V48H111C123.703 48 134 58.2975 134 71C134 83.7025 123.703 94 111 94H75V96H100C112.703 96 123 106.297 123 119C123 131.703 112.703 142 100 142H34C21.2975 142 11 131.703 11 119C11 106.297 21.2975 96 34 96H60V94H23C10.2974 94 0 83.7025 0 71C0 58.2975 10.2975 48 23 48H59.5V46H42C29.2974 46 19 35.7025 19 23Z" fill="white"/>
<path d="M74.5 46V44.8451H73.3451V46H74.5ZM74.5 48H73.3451V49.1549H74.5V48ZM75 94V92.8451H73.8451V94H75ZM75 96H73.8451V97.1549H75V96ZM60 96V97.1549H61.1549V96H60ZM60 94H61.1549V92.8451H60V94ZM59.5 48V49.1549H60.6549V48H59.5ZM59.5 46H60.6549V44.8451H59.5V46ZM42 -1.15486C28.6596 -1.15486 17.8451 9.65964 17.8451 23H20.1549C20.1549 10.9353 29.9353 1.15486 42 1.15486V-1.15486ZM92 -1.15486H42V1.15486H92V-1.15486ZM116.155 23C116.155 9.65964 105.34 -1.15486 92 -1.15486V1.15486C104.065 1.15486 113.845 10.9353 113.845 23H116.155ZM92 47.1549C105.34 47.1549 116.155 36.3404 116.155 23H113.845C113.845 35.0647 104.065 44.8451 92 44.8451V47.1549ZM74.5 47.1549H92V44.8451H74.5V47.1549ZM75.6549 48V46H73.3451V48H75.6549ZM111 46.8451H74.5V49.1549H111V46.8451ZM135.155 71C135.155 57.6596 124.34 46.8451 111 46.8451V49.1549C123.065 49.1549 132.845 58.9353 132.845 71H135.155ZM111 95.1549C124.34 95.1549 135.155 84.3404 135.155 71H132.845C132.845 83.0647 123.065 92.8451 111 92.8451V95.1549ZM75 95.1549H111V92.8451H75V95.1549ZM73.8451 94V96H76.1549V94H73.8451ZM75 97.1549H100V94.8451H75V97.1549ZM100 97.1549C112.065 97.1549 121.845 106.935 121.845 119H124.155C124.155 105.66 113.34 94.8451 100 94.8451V97.1549ZM121.845 119C121.845 131.065 112.065 140.845 100 140.845V143.155C113.34 143.155 124.155 132.34 124.155 119H121.845ZM100 140.845H34V143.155H100V140.845ZM34 140.845C21.9353 140.845 12.1549 131.065 12.1549 119H9.84514C9.84514 132.34 20.6596 143.155 34 143.155V140.845ZM12.1549 119C12.1549 106.935 21.9353 97.1549 34 97.1549V94.8451C20.6596 94.8451 9.84514 105.66 9.84514 119H12.1549ZM34 97.1549H60V94.8451H34V97.1549ZM61.1549 96V94H58.8451V96H61.1549ZM23 95.1549H60V92.8451H23V95.1549ZM-1.15486 71C-1.15486 84.3404 9.65964 95.1549 23 95.1549V92.8451C10.9353 92.8451 1.15486 83.0647 1.15486 71H-1.15486ZM23 46.8451C9.65964 46.8451 -1.15486 57.6596 -1.15486 71H1.15486C1.15486 58.9353 10.9353 49.1549 23 49.1549V46.8451ZM59.5 46.8451H23V49.1549H59.5V46.8451ZM58.3451 46V48H60.6549V46H58.3451ZM42 47.1549H59.5V44.8451H42V47.1549ZM17.8451 23C17.8451 36.3404 28.6596 47.1549 42 47.1549V44.8451C29.9353 44.8451 20.1549 35.0647 20.1549 23H17.8451Z" fill="#F1F1F1" mask="url(#path-1-inside-1_321_10312)"/>
</svg>
